<?xml version="1.0" encoding="utf-8"?>
<!-- Generator: Adobe Illustrator 26.0.3, SVG Export Plug-In . SVG Version: 6.00 Build 0)  -->
<svg version="1.1" id="Calque_1" xmlns="http://www.w3.org/2000/svg" xmlns:xlink="http://www.w3.org/1999/xlink" x="0px" y="0px"
	 viewBox="0 0 118 118" style="enable-background:new 0 0 118 118;" xml:space="preserve">
<style type="text/css">
	.st0{fill:#ffca2c;}
	.st1{fill:none;stroke:#505050;stroke-width:3;stroke-linecap:round;stroke-linejoin:round;stroke-miterlimit:10;}
	.st2{fill:none;}
</style>
<circle class="st0" cx="59" cy="63.99" r="45.99"/>
<g>
	<path class="st1" d="M56.05,45.4v-4.89c0-2.56-1.76-4.64-3.91-4.63c-2.16,0-3.9,2.08-3.9,4.64l0.03,24.08"/>
	<path class="st1" d="M63.86,54.39l0-9.7c0-2.56-1.76-4.64-3.91-4.63c-2.16,0-3.9,2.08-3.9,4.64l0.03,19.9"/>
	<path class="st1" d="M48.23,46.79c0-2.56-1.76-4.64-3.91-4.63c-2.16,0-3.9,2.08-3.9,4.64l0.03,24.08
		c-0.55-1.61-1.01-3.05-1.44-4.04c-2.39-5.52-4.77-8.5-7.27-7.61c-3.18,1.12-1.55,5.84,0,10.45c1.75,5.21,4.18,14.63,7.47,19.15
		c3.78,5.18,8.99,7.69,15,7.68c7.29-0.01,16.75-3.83,16.75-17.2c0-0.1,0-11.7,0-11.7l0-13.21c0-2.33-1.59-4.21-3.56-4.21
		c-1.96,0-3.55,1.89-3.54,4.22l0.03,10.6"/>
	<path class="st1" d="M70.36,84.72c10.38,0.89,17.82-0.87,20.76-1.74l0,0c-3.98-7.11-8.68-19.55-4.36-34.12
		c5.09-17.17,2.52-30.08,1.2-34.79l0,0c-6.01,1.27-17.55,2.5-32.18-1.84c-16.47-4.88-30.21,1.75-36.62,5.86
		c1.15,6.3,1.9,17.21-2.12,30.77c-4.91,16.57,1.83,30.37,5.93,36.73l0,0c3.3-1.72,7.55-3.47,12.48-4.49"/>
	<path class="st1" d="M64.92,23.65c-3.07-0.47-6.38-1.22-9.87-2.34c-7.98-2.56-15.28-1.95-21.27-0.21"/>
	<path class="st1" d="M55.06,26.62c-5.32-1.7-10.33-2-14.86-1.5"/>
</g>
<rect class="st2" width="118" height="118"/>
</svg>
